# xmcd
#
# Track frame offsets: 
#        150
#        19707
#        48455
#        70930
#        88347
#        101962
#        126755
#        150922
#        174132
#        188282
#
# Disc length: 2706 seconds
#
# Revision: 6
# Processed by: cddbd v1.5.2PL0 Copyright (c) Steve Scherf et al.
# Submitted via: ExactAudioCopy v1.0b3
#
DISCID=750a900a
DTITLE=Chet Atkins - Sails
DYEAR=1987
DGENRE=Jazz
TTITLE0=Sails
TTITLE1=Why Worry
TTITLE2=Sometime, Someplace
TTITLE3=Up In My Treehouse
TTITLE4=Waltz For The Lonely
TTITLE5=Laffin' At Life
TTITLE6=On A Roll
TTITLE7=My Song
TTITLE8=Love Letter
TTITLE9=Wobegon (The Way It Used To Be)
EXTD=produced by David Hungate and Chet Atkins\n\nSAILS: Co-produced w
EXTD=ith Chet by Toto's original bassist \nDavid Hungate this album is
EXTD=considered one of Chet's most \nbeautiful ever. He is joined on 
EXTD=this album once again \nby Mark Knopfler and Earl Klugh. \nInclud
EXTD=es Knopfler's song "Why Worry", the haunting title \ntrack "Sails
EXTD=", and a n original Chet tune "Wobegon" \n(The Way It Used To Be)
EXTD=dedicated to Chet's new friend \nGarrison Keillor.
EXTT0=
EXTT1=
EXTT2=
EXTT3=
EXTT4=
EXTT5=
EXTT6=
EXTT7=
EXTT8=
EXTT9=
PLAYORDER=
